<svg width="16" height="20" viewBox="0 0 16 20" fill="none" xmlns="http://www.w3.org/2000/svg">
<path fill-rule="evenodd" clip-rule="evenodd" d="M7.95051 13.3566C4.05061 13.3566 0.720194 13.9463 0.720194 16.3077C0.720194 18.6692 4.02949 19.2799 7.95051 19.2799C11.8504 19.2799 15.1799 18.6893 15.1799 16.3288C15.1799 13.9683 11.8715 13.3566 7.95051 13.3566Z" fill="#DCDAFF"/>
<path fill-rule="evenodd" clip-rule="evenodd" d="M7.95051 9.98845C10.5098 9.98845 12.5841 7.91318 12.5841 5.3539C12.5841 2.79463 10.5098 0.720317 7.95051 0.720317C5.39123 0.720317 3.31596 2.79463 3.31596 5.3539C3.30732 7.90454 5.36819 9.97981 7.91786 9.98845H7.95051Z" fill="#DCDAFF"/>
<path fill-rule="evenodd" clip-rule="evenodd" d="M7.95051 13.3566C4.05061 13.3566 0.720194 13.9463 0.720194 16.3077C0.720194 18.6692 4.02949 19.2799 7.95051 19.2799C11.8504 19.2799 15.1799 18.6893 15.1799 16.3288C15.1799 13.9683 11.8715 13.3566 7.95051 13.3566Z" stroke="#8982FF" stroke-width="1.42857" stroke-linecap="round" stroke-linejoin="round"/>
<path fill-rule="evenodd" clip-rule="evenodd" d="M7.95051 9.98845C10.5098 9.98845 12.5841 7.91318 12.5841 5.3539C12.5841 2.79463 10.5098 0.720317 7.95051 0.720317C5.39123 0.720317 3.31596 2.79463 3.31596 5.3539C3.30732 7.90454 5.36819 9.97981 7.91786 9.98845H7.95051Z" stroke="#8982FF" stroke-width="1.42857" stroke-linecap="round" stroke-linejoin="round"/>
</svg>
