<svg width="37" height="23" viewBox="0 0 37 23" fill="none" xmlns="http://www.w3.org/2000/svg">
<path fill-rule="evenodd" clip-rule="evenodd" d="M19.6268 19.6367C21.7108 17.5552 23 14.6782 23 11.5C23 8.32183 21.7108 5.44478 19.6268 3.3633C21.0588 2.49796 22.7377 2 24.533 2C29.7797 2 34.033 6.25329 34.033 11.5C34.033 16.7467 29.7797 21 24.533 21C22.7377 21 21.0588 20.502 19.6268 19.6367ZM18.0165 20.9768C15.0062 18.9029 13.033 15.4319 13.033 11.5C13.033 7.56809 15.0062 4.09706 18.0165 2.02318C18.5935 2.42074 19.1325 2.86965 19.6268 3.3633C16.8736 5.02696 15.033 8.04853 15.033 11.5C15.033 14.9515 16.8736 17.973 19.6268 19.6367C19.1325 20.1304 18.5935 20.5793 18.0165 20.9768ZM18.0165 20.9768C16.1642 22.2529 13.9194 23 11.5 23C5.14873 23 0 17.8513 0 11.5C0 5.14873 5.14873 0 11.5 0C13.9194 0 16.1642 0.747102 18.0165 2.02318C19.8687 0.747102 22.1136 0 24.533 0C30.8842 0 36.033 5.14873 36.033 11.5C36.033 17.8513 30.8842 23 24.533 23C22.1136 23 19.8687 22.2529 18.0165 20.9768Z" fill="#D13329"/>
</svg>
