<svg width="86" height="86" viewBox="0 0 86 86" fill="none" xmlns="http://www.w3.org/2000/svg">
<rect x="-6.24415" y="43" width="69.6417" height="69.6417" rx="15" transform="rotate(-45 -6.24415 43)" fill="#007348" fill-opacity="0.15"/>
<path d="M24.7551 28.9894V34.9094L25.676 35.6001L26.564 36.3236L26.6626 32.969C26.7284 30.009 26.8271 29.6472 27.3204 29.8117C27.6164 29.9103 30.4448 30.7325 33.6021 31.6534C36.7594 32.5743 39.5879 33.4623 39.9167 33.6596C40.9034 34.1858 41.1994 35.1067 41.1994 37.8036C41.1994 40.336 41.2323 40.3689 42.2189 40.928L43.2385 41.52L43.1069 35.5014C43.0083 29.0881 42.8767 28.5948 41.2323 27.6081C40.5416 27.2135 25.676 23.1024 24.9195 23.1024C24.8209 23.1024 24.7551 25.7664 24.7551 28.9894Z" fill="#007348"/>
<path d="M24.0973 40.6981V45.1381L25.1826 46.2563C26.1035 47.2758 26.827 47.5718 31.6617 48.8874C40.7718 51.3869 41.9887 51.7158 42.2518 51.7158C42.4162 51.7158 42.5149 49.874 42.5149 47.6376C42.5149 43.987 42.4491 43.4937 41.8243 42.7043C40.9363 41.5861 41.002 41.5861 32.747 39.3497C28.9648 38.3301 25.5115 37.2119 25.0182 36.883L24.0973 36.2253V40.6981Z" fill="#007348"/>
<path d="M61.8861 36.7844C61.5901 37.0804 57.8737 38.2644 53.664 39.4155C43.7974 42.1123 44.1592 41.7834 44.1592 47.6047C44.1592 49.874 44.2578 51.7158 44.4223 51.7158C45.2774 51.7158 60.0773 47.4403 60.7679 46.9798C62.4452 45.8945 62.6097 45.2367 62.511 40.5666C62.4123 36.5542 62.3795 36.2582 61.8861 36.7844Z" fill="#007348"/>
<path d="M24.0973 51.8471C24.0973 55.7938 24.1631 56.32 24.7879 57.1093C25.1497 57.5697 25.7417 58.096 26.0706 58.2933C26.5639 58.5564 41.9229 62.8977 42.3834 62.8977C42.7122 62.8977 42.482 54.9715 42.1202 54.1822C41.5611 52.9324 40.8376 52.6364 33.1417 50.5645C29.3266 49.512 25.7417 48.3938 25.1826 48.0649L24.0973 47.4729V51.8471Z" fill="#007348"/>
<path d="M62.1494 47.6701C61.8206 48.1963 59.9788 48.8212 52.8749 50.7616C46.0011 52.6363 45.5736 52.8007 44.7514 53.8203C44.258 54.3794 44.1594 55.2345 44.1594 58.7207C44.1594 62.6015 44.1923 62.9304 44.7514 62.766C45.0474 62.6673 48.6322 61.7135 52.7104 60.5953C56.7886 59.4771 60.4392 58.3589 60.8339 58.0958C62.4126 57.0762 62.6099 56.3856 62.5112 51.6825C62.4454 49.2487 62.3139 47.4399 62.1494 47.6701Z" fill="#007348"/>
</svg>
