<svg width="19" height="18" viewBox="0 0 19 18" fill="none" xmlns="http://www.w3.org/2000/svg">
<path d="M15.7541 9.46587C15.6272 9.32943 15.5572 9.15402 15.5572 8.9724C15.5572 8.79078 15.6272 8.61537 15.7541 8.47893L16.7675 7.40226C16.8791 7.28463 16.9485 7.13661 16.9655 6.97945C16.9826 6.82229 16.9465 6.66406 16.8625 6.52747L15.2791 3.94048C15.1959 3.80405 15.0693 3.6959 14.9172 3.63145C14.7651 3.56701 14.5953 3.54956 14.4321 3.58159L12.9437 3.86571C12.7543 3.90267 12.5572 3.87288 12.3895 3.78197C12.2218 3.69106 12.0951 3.54532 12.0333 3.37224L11.5504 2.00398C11.4973 1.85547 11.3961 1.72649 11.2611 1.63525C11.1262 1.54402 10.9643 1.49515 10.7983 1.49555H7.63165C7.45901 1.48704 7.28817 1.53213 7.14522 1.62394C7.00227 1.71575 6.89507 1.84922 6.83998 2.00398L6.39665 3.37224C6.3349 3.54532 6.20821 3.69106 6.04049 3.78197C5.87277 3.87288 5.67561 3.90267 5.48623 3.86571L3.95832 3.58159C3.80359 3.56094 3.64584 3.584 3.50497 3.64787C3.36409 3.71173 3.24637 3.81355 3.16665 3.94048L1.58332 6.52747C1.49715 6.66254 1.45841 6.81988 1.47263 6.977C1.48685 7.13411 1.5533 7.28296 1.66248 7.40226L2.6679 8.47893C2.79482 8.61537 2.86481 8.79078 2.86481 8.9724C2.86481 9.15402 2.79482 9.32943 2.6679 9.46587L1.66248 10.5425C1.5533 10.6618 1.48685 10.8107 1.47263 10.9678C1.45841 11.1249 1.49715 11.2823 1.58332 11.4173L3.16665 14.0043C3.24985 14.1408 3.37654 14.2489 3.52864 14.3133C3.68075 14.3778 3.85051 14.3952 4.01373 14.3632L5.50207 14.0791C5.69145 14.0421 5.8886 14.0719 6.05632 14.1628C6.22404 14.2537 6.35073 14.3995 6.41248 14.5726L6.8954 15.9408C6.95048 16.0956 7.05769 16.2291 7.20064 16.3209C7.34359 16.4127 7.51443 16.4578 7.68706 16.4492H10.8537C11.0197 16.4497 11.1816 16.4008 11.3166 16.3095C11.4515 16.2183 11.5527 16.0893 11.6058 15.9408L12.0887 14.5726C12.1505 14.3995 12.2772 14.2537 12.4449 14.1628C12.6126 14.0719 12.8098 14.0421 12.9991 14.0791L14.4875 14.3632C14.6507 14.3952 14.8205 14.3778 14.9726 14.3133C15.1247 14.2489 15.2514 14.1408 15.3346 14.0043L16.9179 11.4173C17.0019 11.2807 17.038 11.1225 17.021 10.9653C17.0039 10.8082 16.9346 10.6602 16.8229 10.5425L15.7541 9.46587ZM14.5746 10.4678L15.2079 11.1407L14.1946 12.8005L13.2604 12.6211C12.6902 12.511 12.0971 12.6025 11.5936 12.8782C11.0901 13.1538 10.7113 13.5945 10.5291 14.1165L10.2283 14.9539H8.20165L7.91665 14.1015C7.73445 13.5795 7.35566 13.1389 6.85218 12.8632C6.3487 12.5875 5.75557 12.4961 5.1854 12.6062L4.25123 12.7856L3.22207 11.1332L3.8554 10.4603C4.24486 10.0491 4.46018 9.51666 4.46018 8.96492C4.46018 8.41318 4.24486 7.8808 3.8554 7.46955L3.22207 6.79664L4.2354 5.15173L5.16957 5.33118C5.73974 5.44125 6.33286 5.34978 6.83634 5.07412C7.33982 4.79846 7.71862 4.35781 7.90081 3.83581L8.20165 2.99092H10.2283L10.5291 3.84328C10.7113 4.36529 11.0901 4.80594 11.5936 5.0816C12.0971 5.35725 12.6902 5.44873 13.2604 5.33865L14.1946 5.15921L15.2079 6.81907L14.5746 7.49199C14.1895 7.90228 13.9768 8.43159 13.9768 8.97988C13.9768 9.52817 14.1895 10.0575 14.5746 10.4678ZM9.21498 5.98166C8.58867 5.98166 7.97643 6.15707 7.45568 6.48569C6.93492 6.81432 6.52904 7.28141 6.28936 7.82789C6.04969 8.37438 5.98698 8.97572 6.10916 9.55587C6.23135 10.136 6.53294 10.6689 6.97581 11.0872C7.41868 11.5054 7.98292 11.7903 8.5972 11.9057C9.21147 12.0211 9.84818 11.9618 10.4268 11.7355C11.0054 11.5091 11.5 11.1258 11.848 10.634C12.1959 10.1421 12.3816 9.56391 12.3816 8.9724C12.3816 8.17921 12.048 7.4185 11.4542 6.85763C10.8603 6.29676 10.0548 5.98166 9.21498 5.98166ZM9.21498 10.4678C8.90183 10.4678 8.59571 10.3801 8.33533 10.2158C8.07495 10.0514 7.87201 9.8179 7.75217 9.54465C7.63233 9.27141 7.60098 8.97074 7.66207 8.68067C7.72316 8.3906 7.87396 8.12415 8.0954 7.91501C8.31683 7.70588 8.59895 7.56346 8.90609 7.50576C9.21322 7.44806 9.53158 7.47768 9.8209 7.59086C10.1102 7.70404 10.3575 7.89571 10.5315 8.14162C10.7055 8.38753 10.7983 8.67664 10.7983 8.9724C10.7983 9.369 10.6315 9.74935 10.3346 10.0298C10.0376 10.3102 9.63491 10.4678 9.21498 10.4678Z" fill="black"/>
</svg>
