<svg width="375" height="71" viewBox="0 0 375 71" fill="none" xmlns="http://www.w3.org/2000/svg">
<g filter="url(#filter0_d_0_7)">
<path d="M187 42C203.569 42 217 28.5685 217 12C217 11.6423 216.994 11.2862 216.981 10.9315L217 11C217.38 3.02134 223.203 0.425789 226.5 0.0426555L214.504 0.00172155L214.504 0H347C354.445 0 358.168 0 361.18 0.97887C367.269 2.95723 372.043 7.7309 374.021 13.8197C375 16.8323 375 20.5549 375 28V71H0V28C0 20.5549 0 16.8323 0.97887 13.8197C2.95723 7.7309 7.7309 2.95723 13.8197 0.97887C16.8323 0 20.5549 0 28 0H159.496L159.496 0.00172155L147.5 0.0426555C150.797 0.425789 156.62 3.02134 157 11L157.019 10.9315C157.006 11.2862 157 11.6423 157 12C157 28.5685 170.431 42 187 42Z" fill="white"/>
</g>
<defs>
<filter id="filter0_d_0_7" x="-18" y="-20" width="411" height="107" filterUnits="userSpaceOnUse" color-interpolation-filters="sRGB">
<feFlood flood-opacity="0" result="BackgroundImageFix"/>
<feColorMatrix in="SourceAlpha" type="matrix" values="0 0 0 0 0 0 0 0 0 0 0 0 0 0 0 0 0 0 127 0" result="hardAlpha"/>
<feOffset dy="-2"/>
<feGaussianBlur stdDeviation="9"/>
<feComposite in2="hardAlpha" operator="out"/>
<feColorMatrix type="matrix" values="0 0 0 0 0 0 0 0 0 0 0 0 0 0 0 0 0 0 0.06 0"/>
<feBlend mode="normal" in2="BackgroundImageFix" result="effect1_dropShadow_0_7"/>
<feBlend mode="normal" in="SourceGraphic" in2="effect1_dropShadow_0_7" result="shape"/>
</filter>
</defs>
</svg>
